{"title":"Mohalla Assi 2015 Hindi Movies PDVDRip XviD AAC New +Sample â˜»rDX","uid":12240813,"size":740253622,"categoryP":"video","categoryS":"movies","magnet":"?xt=urn:btih:d8a3f5c1b3619323ad478e44504d6a01e9574650&amp;dn=Mohalla+Assi+2015+Hindi+Movies+PDVDRip+XviD+AAC+New+%2BSample+%E2%98%BBrDX&amp;tr=udp%3A%2F%2Ftracker.openbittorrent.com%3A80&amp;tr=udp%3A%2F%2Fopen.demonii.com%3A1337&amp;tr=udp%3A%2F%2Ftracker.coppersurfer.tk%3A6969&amp;tr=udp%3A%2F%2Fexodus.desync.com%3A6969","seeders":1,"leechers":0,"uploader":"basicssom","files":2,"time":1439797283,"description":"----------------------------------------------------------------\nMohalla Assi 2015 Hindi Movies PDVDRip XviD AAC New Source with Sample ~ â˜»rDXâ˜»\n\nSCREEN SHOTS &amp; POSTER:\n &lt;a href=&quot;\nhttp://imagehosting4u.com/2015/8/MohallaAssi/11.html&quot; rel=&quot;nofollow&quot; target=&quot;_NEW&quot;&gt;\nhttp://imagehosting4u.com/2015/8/MohallaAssi/11.html&lt;/a&gt; &lt;a href=&quot;\nhttp://imagehosting4u.com/2015/8/MohallaAssi/1.html&quot; rel=&quot;nofollow&quot; target=&quot;_NEW&quot;&gt;\nhttp://imagehosting4u.com/2015/8/MohallaAssi/1.html&lt;/a&gt; &lt;a href=&quot;\nhttp://imagehosting4u.com/2015/8/MohallaAssi/2.html&quot; rel=&quot;nofollow&quot; target=&quot;_NEW&quot;&gt;\nhttp://imagehosting4u.com/2015/8/MohallaAssi/2.html&lt;/a&gt; &lt;a href=&quot;\nhttp://imagehosting4u.com/2015/8/MohallaAssi/3.html&quot; rel=&quot;nofollow&quot; target=&quot;_NEW&quot;&gt;\nhttp://imagehosting4u.com/2015/8/MohallaAssi/3.html&lt;/a&gt; &lt;a href=&quot;\nhttp://imagehosting4u.com/2015/8/MohallaAssi/4.html&quot; rel=&quot;nofollow&quot; target=&quot;_NEW&quot;&gt;\nhttp://imagehosting4u.com/2015/8/MohallaAssi/4.html&lt;/a&gt; &lt;a href=&quot;\nhttp://imagehosting4u.com/2015/8/MohallaAssi/5.html&quot; rel=&quot;nofollow&quot; target=&quot;_NEW&quot;&gt;\nhttp://imagehosting4u.com/2015/8/MohallaAssi/5.html&lt;/a&gt; &lt;a href=&quot;\nhttp://imagehosting4u.com/2015/8/MohallaAssi/6.html&quot; rel=&quot;nofollow&quot; target=&quot;_NEW&quot;&gt;\nhttp://imagehosting4u.com/2015/8/MohallaAssi/6.html&lt;/a&gt; &lt;a href=&quot;\nhttp://imagehosting4u.com/2015/8/MohallaAssi/7.html&quot; rel=&quot;nofollow&quot; target=&quot;_NEW&quot;&gt;\nhttp://imagehosting4u.com/2015/8/MohallaAssi/7.html&lt;/a&gt; &lt;a href=&quot;\nhttp://imagehosting4u.com/2015/8/MohallaAssi/8.html&quot; rel=&quot;nofollow&quot; target=&quot;_NEW&quot;&gt;\nhttp://imagehosting4u.com/2015/8/MohallaAssi/8.html&lt;/a&gt; &lt;a href=&quot;\nhttp://imagehosting4u.com/2015/8/MohallaAssi/9.html&quot; rel=&quot;nofollow&quot; target=&quot;_NEW&quot;&gt;\nhttp://imagehosting4u.com/2015/8/MohallaAssi/9.html&lt;/a&gt; &lt;a href=&quot;\nhttp://imagehosting4u.com/2015/8/MohallaAssi/10.html&quot; rel=&quot;nofollow&quot; target=&quot;_NEW&quot;&gt;\nhttp://imagehosting4u.com/2015/8/MohallaAssi/10.html&lt;/a&gt;\n\nFormat                                   : Matroska\nFormat version                           : Version 4 / Version 2\nFile size                                : 685 MiB\nDuration                                 : 2h 25mn\nOverall bit rate                         : 659 Kbps\nMovie name                               : Mohalla Assi 2015 Hindi Movies PDVDRip XviD AAC New Source ~ rDX ~\n\nVideo\nID                                       : 1\nFormat                                   : MPEG-4 Visual\nFormat profile                           : Advanced Simple@L5\nFormat settings, BVOP                    : Yes\nFormat settings, QPel                    : No\nFormat settings, GMC                     : No warppoints\nFormat settings, Matrix                  : Default (H.263)\nCodec ID                                 : V_MS/VFW/FOURCC / XVID\nCodec ID/Hint                            : XviD\nDuration                                 : 2h 25mn\nBit rate                                 : 518 Kbps\nWidth                                    : 640 pixels\nHeight                                   : 272 pixels\nDisplay aspect ratio                     : 2.35:1\nFrame rate mode                          : Constant\nFrame rate                               : 29.970 fps\nColor space                              : YUV\nChroma subsampling                       : 4:2:0\nBit depth                                : 8 bits\nScan type                                : Progressive\nCompression mode                         : Lossy\nBits/(Pixel*Frame)                       : 0.099\nStream size                              : 538 MiB (79%)\nTitle                                    : ~ rDX ~\nWriting library                          : XviD 1.2.1 (UTC 2008-12-04)\nDefault                                  : Yes\nForced                                   : No\n\nAudio\nID                                       : 2\nFormat                                   : MPEG Audio\nFormat version                           : Version 1\nFormat profile                           : Layer 3\nMode                                     : Joint stereo\nMode extension                           : MS Stereo\nCodec ID                                 : A_MPEG/L3\nCodec ID/Hint                            : MP3\nDuration                                 : 2h 25mn\nBit rate mode                            : Constant\nBit rate                                 : 128 Kbps\nChannel(s)                               : 2 channels\nSampling rate                            : 48.0 KHz\nCompression mode                         : Lossy\nStream size                              : 133 MiB (19%)\nTitle                                    : ~ rDX ~\nWriting library                          : LAME3.99r\nEncoding settings                        : -m j -V 4 -q 2 -lowpass 17 -b 128\nDefault                                  : Yes\nForced                                   : No","torrent":{"xt":"urn:btih:d8a3f5c1b3619323ad478e44504d6a01e9574650","amp;dn":"Mohalla+Assi+2015+Hindi+Movies+PDVDRip+XviD+AAC+New+%2BSample+%E2%98%BBrDX","amp;tr":["udp%3A%2F%2Ftracker.openbittorrent.com%3A80","udp%3A%2F%2Fopen.demonii.com%3A1337","udp%3A%2F%2Ftracker.coppersurfer.tk%3A6969","udp%3A%2F%2Fexodus.desync.com%3A6969"],"infoHash":"d8a3f5c1b3619323ad478e44504d6a01e9574650","infoHashBuffer":{"type":"Buffer","data":[216,163,245,193,179,97,147,35,173,71,142,68,80,77,106,1,233,87,70,80]},"announce":[],"urlList":[]}}